<svg xmlns="http://www.w3.org/2000/svg" viewBox="0 0 900 600" width="900" height="600">
<defs><linearGradient id="bg" x1="0" x2="1"><stop stop-color="#211307"/><stop offset="1" stop-color="#5b3414"/></linearGradient><linearGradient id="gold" x1="0" x2="1"><stop stop-color="#f4bd25"/><stop offset="1" stop-color="#f7d77b"/></linearGradient><filter id="shadow" x="-20%" y="-20%" width="140%" height="140%"><feDropShadow dx="0" dy="12" stdDeviation="12" flood-color="#000" flood-opacity=".35"/></filter></defs>
<rect width="100%" height="100%" fill="url(#bg)"/>
<rect width="900" height="600" fill="#f6eddf"/><g filter="url(#shadow)"><ellipse cx="450" cy="440" rx="220" ry="35" fill="#b99b72" opacity=".65"/><path d="M280 210 h315 a145 145 0 0 1 -145 210 h-25 a145 145 0 0 1 -145 -210" fill="#fff" stroke="#c9a56a" stroke-width="8"/><path d="M590 240 h60 c60 0 60 95 0 95 h-60" fill="none" stroke="#fff" stroke-width="30"/><ellipse cx="437" cy="215" rx="150" ry="45" fill="#9a5b25"/><path d="M350 205 C410 165 465 165 520 205" fill="none" stroke="#fff" stroke-width="12" stroke-linecap="round"/><path d="M375 222 C430 190 475 190 505 220" fill="none" stroke="#fff" stroke-width="8" stroke-linecap="round"/></g><text x="450" y="110" text-anchor="middle" font-family="Arial Black" font-size="48" fill="#3b2512">CAFÉS</text>
</svg>