<svg xmlns="http://www.w3.org/2000/svg" viewBox="0 0 900 600" width="900" height="600">
<defs><linearGradient id="bg" x1="0" x2="1"><stop stop-color="#211307"/><stop offset="1" stop-color="#5b3414"/></linearGradient><linearGradient id="gold" x1="0" x2="1"><stop stop-color="#f4bd25"/><stop offset="1" stop-color="#f7d77b"/></linearGradient><filter id="shadow" x="-20%" y="-20%" width="140%" height="140%"><feDropShadow dx="0" dy="12" stdDeviation="12" flood-color="#000" flood-opacity=".35"/></filter></defs>
<rect width="100%" height="100%" fill="url(#bg)"/>
<rect width="900" height="600" fill="#f5ead6"/><g filter="url(#shadow)"><g transform="translate(225,95)"><rect x="50" y="110" width="95" height="330" rx="30" fill="#0c7a3b"/><rect x="72" y="20" width="52" height="130" rx="20" fill="#0c7a3b"/><rect x="55" y="250" width="85" height="80" rx="12" fill="#f6e6ad"/><text x="97" y="302" text-anchor="middle" font-family="Arial Black" font-size="18" fill="#0c7a3b">LONG</text></g><g transform="translate(395,95)"><rect x="50" y="110" width="95" height="330" rx="30" fill="#8b2e16"/><rect x="72" y="20" width="52" height="130" rx="20" fill="#8b2e16"/><rect x="55" y="250" width="85" height="80" rx="12" fill="#f6e6ad"/><text x="97" y="302" text-anchor="middle" font-family="Arial Black" font-size="18" fill="#8b2e16">NECK</text></g><g transform="translate(565,95)"><rect x="50" y="110" width="95" height="330" rx="30" fill="#d7aa35"/><rect x="72" y="20" width="52" height="130" rx="20" fill="#d7aa35"/><rect x="55" y="250" width="85" height="80" rx="12" fill="#fff"/><text x="97" y="302" text-anchor="middle" font-family="Arial Black" font-size="18" fill="#1b1b1b">600</text></g></g><text x="450" y="70" text-anchor="middle" font-family="Arial Black" font-size="42" fill="#3a220b">CERVEJAS</text>
</svg>