<svg xmlns="http://www.w3.org/2000/svg" viewBox="0 0 900 600" width="900" height="600">
<defs><linearGradient id="bg" x1="0" x2="1"><stop stop-color="#211307"/><stop offset="1" stop-color="#5b3414"/></linearGradient><linearGradient id="gold" x1="0" x2="1"><stop stop-color="#f4bd25"/><stop offset="1" stop-color="#f7d77b"/></linearGradient><filter id="shadow" x="-20%" y="-20%" width="140%" height="140%"><feDropShadow dx="0" dy="12" stdDeviation="12" flood-color="#000" flood-opacity=".35"/></filter></defs>
<rect width="100%" height="100%" fill="url(#bg)"/>
<ellipse cx="450" cy="520" rx="300" ry="35" fill="#000" opacity=".25"/><g filter="url(#shadow)"><rect x="260" y="120" width="300" height="360" rx="34" fill="#f8f2e4" opacity=".24" stroke="#fff" stroke-width="8"/><rect x="282" y="215" width="256" height="245" rx="24" fill="#d98a04"/><rect x="282" y="180" width="256" height="70" rx="35" fill="#fff9e9"/><circle cx="326" cy="255" r="10" fill="#fff" opacity=".55"/><circle cx="382" cy="325" r="8" fill="#fff" opacity=".45"/><circle cx="480" cy="285" r="11" fill="#fff" opacity=".5"/><path d="M560 230 h70 c55 0 55 160 0 160 h-70" fill="none" stroke="#f8f2e4" stroke-width="32" stroke-linecap="round"/><path d="M560 240 h63 c34 0 34 135 0 135 h-63" fill="none" stroke="#6a3d17" stroke-width="12" stroke-linecap="round"/></g><text x="450" y="88" text-anchor="middle" font-family="Arial Black" font-size="46" fill="#f2c04d">CHOPP GELADO</text>
</svg>