<svg xmlns="http://www.w3.org/2000/svg" viewBox="0 0 900 680" role="img" aria-label="Ilustração de escritório contábil moderno"><defs><linearGradient id="g" x1="0" x2="1" y1="0" y2="1"><stop offset="0" stop-color="#fffaf1"/><stop offset="1" stop-color="#eadcc4"/></linearGradient><linearGradient id="gold" x1="0" x2="1"><stop offset="0" stop-color="#d6a348"/><stop offset="1" stop-color="#9f6f25"/></linearGradient><filter id="s" x="-20%" y="-20%" width="140%" height="140%"><feDropShadow dx="0" dy="22" stdDeviation="24" flood-color="#111814" flood-opacity=".16"/></filter></defs><rect width="900" height="680" rx="46" fill="url(#g)"/><circle cx="760" cy="120" r="110" fill="#b98732" opacity=".14"/><circle cx="120" cy="590" r="160" fill="#111814" opacity=".05"/><g filter="url(#s)"><rect x="120" y="130" width="660" height="430" rx="34" fill="#fffdf8" stroke="#d8c4a1"/><rect x="165" y="185" width="260" height="26" rx="13" fill="#111814"/><rect x="165" y="235" width="420" height="18" rx="9" fill="#d9c7a7"/><rect x="165" y="272" width="510" height="18" rx="9" fill="#eadfcf"/><rect x="165" y="309" width="360" height="18" rx="9" fill="#eadfcf"/><rect x="165" y="380" width="170" height="90" rx="18" fill="#111814" opacity=".96"/><rect x="365" y="380" width="170" height="90" rx="18" fill="#b98732" opacity=".92"/><rect x="565" y="380" width="110" height="90" rx="18" fill="#efe7da" stroke="#d8c4a1"/></g><g transform="translate(575 172)"><circle cx="72" cy="72" r="72" fill="url(#gold)"/><path d="M43 75l19 19 42-51" fill="none" stroke="#fffaf1" stroke-width="15" stroke-linecap="round" stroke-linejoin="round"/></g><g opacity=".9"><path d="M135 84h130" stroke="#b98732" stroke-width="8" stroke-linecap="round"/><path d="M665 600h92" stroke="#b98732" stroke-width="8" stroke-linecap="round"/></g></svg>